<?xml version="1.0" encoding="utf-8"?>
<!-- Generator: Adobe Illustrator 24.1.1, SVG Export Plug-In . SVG Version: 6.00 Build 0)  -->
<svg version="1.1" id="Capa_1" xmlns="http://www.w3.org/2000/svg" xmlns:xlink="http://www.w3.org/1999/xlink" x="0px" y="0px"
	 viewBox="0 0 25 25" style="enable-background:new 0 0 25 25;" xml:space="preserve">
<style type="text/css">
	.st0{fill:#FFFFFF;}
</style>
<path id="spotify-logo-new" class="st0" d="M12.5,0C5.6,0,0,5.6,0,12.5S5.6,25,12.5,25S25,19.4,25,12.5C25,5.6,19.5,0,12.5,0
	C12.5,0,12.5,0,12.5,0z M18.2,18.1c-0.1,0.2-0.4,0.4-0.7,0.5c-0.2,0-0.3,0-0.5-0.1c-4.9-3-10.8-1.2-10.8-1.2c-0.4,0.1-0.9-0.1-1-0.6
	c-0.1-0.4,0.1-0.9,0.6-1c4.1-1.1,8.4-0.6,12.2,1.4C18.3,17.2,18.4,17.7,18.2,18.1z M19.8,14.5C19.6,14.8,19.3,15,19,15
	c-0.2,0-0.3,0-0.5-0.1c-3.8-2.1-8.3-2.6-12.5-1.5c-0.5,0.2-1.1-0.1-1.2-0.6c-0.2-0.5,0.1-1.1,0.6-1.2l0,0c4.7-1.4,9.8-0.8,14.1,1.6
	C19.9,13.5,20,14.1,19.8,14.5z M20.5,11.3c-0.2,0-0.4,0-0.6-0.1c-4.5-2.2-9.7-2.7-14.5-1.5C4.8,9.9,4.1,9.6,3.9,9c0,0,0-0.1,0-0.1
	C3.6,8.3,3.9,7.6,4.5,7.4c0,0,0.1,0,0.1,0C10.1,5.9,16,6.4,21,9c0.6,0.3,0.8,1,0.5,1.6c0,0,0,0,0,0C21.3,11,20.9,11.3,20.5,11.3z"/>
</svg>
