<?xml version="1.0" encoding="utf-8"?>
<!-- Generator: Adobe Illustrator 22.1.0, SVG Export Plug-In . SVG Version: 6.00 Build 0)  -->
<svg version="1.1" id="Capa_1" xmlns="http://www.w3.org/2000/svg" xmlns:xlink="http://www.w3.org/1999/xlink" x="0px" y="0px"
	 viewBox="0 0 25 25" style="enable-background:new 0 0 25 25;" xml:space="preserve">
<style type="text/css">
	.st0{fill:#272727;}
</style>
<g id="Atoms-_-Icons-_-white-_-32px-_-rrss-_-instagram" transform="translate(1412 2432)">
	<path id="Combined-Shape" class="st0" d="M-1392.5-2430.5c2.2,0,4,1.8,4,4v13.9c0,2.2-1.8,4-4,4h-13.9c-2.2,0-4-1.8-4-4v-13.9
		c0-2.2,1.8-4,4-4H-1392.5z M-1399.5-2412.5c3.9,0,7-3.1,7-7s-3.1-7-7-7s-7,3.1-7,7C-1406.5-2415.7-1403.3-2412.5-1399.5-2412.5z
		 M-1392.3-2425c0.9,0,1.6-0.7,1.6-1.6c0-0.9-0.7-1.6-1.6-1.6s-1.6,0.7-1.6,1.6S-1393.2-2425-1392.3-2425z M-1399.5-2423.5
		c2.2,0,4,1.8,4,4s-1.8,4-4,4s-4-1.8-4-4S-1401.7-2423.5-1399.5-2423.5z"/>
</g>
</svg>
