<?xml version="1.0" encoding="utf-8"?>
<!-- Generator: Adobe Illustrator 24.1.1, SVG Export Plug-In . SVG Version: 6.00 Build 0)  -->
<svg version="1.1" id="Capa_1" xmlns="http://www.w3.org/2000/svg" xmlns:xlink="http://www.w3.org/1999/xlink" x="0px" y="0px"
	 viewBox="0 0 25 25" style="enable-background:new 0 0 25 25;" xml:space="preserve">
<style type="text/css">
	.st0{fill:#FFFFFF;}
</style>
<path id="youtube-logo-new" class="st0" d="M24.7,8.7c0-0.6-0.1-1.3-0.3-1.9c-0.1-0.6-0.4-1.1-0.8-1.5c-0.5-0.6-1.2-0.9-2-1.1
	C20.9,4.1,20.2,4,19.4,4c-0.9-0.2-1.7-0.2-2.6-0.2c-1.7,0-3.4-0.1-5.2-0.1c-2.1,0-4.2,0.1-6.3,0.2C4.6,3.9,3.8,4,3.1,4.1
	C1.8,4.4,0.8,5.3,0.5,6.5C0.3,7.2,0.2,7.9,0.2,8.6C0.1,9.7,0,10.8,0,11.9c0,1.6,0,3.1,0.2,4.7c0.1,0.6,0.2,1.2,0.3,1.8
	c0.2,1.2,1.1,2.1,2.3,2.3c0.4,0.1,0.9,0.2,1.3,0.2C5,21,5.8,21,6.7,21.1c0.9,0,1.6,0.1,2.5,0.1c1.2,0,2.4,0,3.6,0.1h0.6
	c2.3,0,4.6-0.1,7-0.3c0.5,0,1.1-0.1,1.6-0.2c1.2-0.2,2.1-1.1,2.4-2.2c0.2-0.8,0.3-1.5,0.4-2.3c0.1-1.1,0.2-2.1,0.2-3.2
	C24.9,11.6,24.9,10.2,24.7,8.7z M10,16.2V8.7c2.2,1.2,4.3,2.5,6.5,3.7C14.3,13.7,12.2,14.9,10,16.2z"/>
</svg>
