<?xml version="1.0" encoding="utf-8"?>
<!-- Generator: Adobe Illustrator 24.1.1, SVG Export Plug-In . SVG Version: 6.00 Build 0)  -->
<svg version="1.1" id="Capa_1" xmlns="http://www.w3.org/2000/svg" xmlns:xlink="http://www.w3.org/1999/xlink" x="0px" y="0px"
	 viewBox="0 0 25 25" style="enable-background:new 0 0 25 25;" xml:space="preserve">
<style type="text/css">
	.st0{fill:#FFFFFF;}
</style>
<g id="icomoon-ignore">
</g>
<path class="st0" d="M19.5,1.5h-14c-2.2,0-4,1.8-4,4v14c0,2.2,1.8,4,4,4h14c2.2,0,4-1.8,4-4v-14C23.5,3.3,21.7,1.5,19.5,1.5z
	 M18.6,15.2c0,0.9-0.4,1.8-1,2.4c-1.2,1.2-3,1.4-4.4,0.6L13,18c-2.5-1.5-4.6-3.7-6.1-6.2C6,10.4,6.3,8.6,7.4,7.4
	c0.6-0.6,1.5-1,2.4-1c0,0,0,0,0,0h0.2c0,0,0.1,0,0.1,0.1l1.2,3.2c0,0,0,0.1,0,0.1l-1.2,1.1l0.2,0.3c0.9,1.3,2,2.4,3.3,3.3l0.3,0.2
	l1.2-1.2c0,0,0.1,0,0.1,0l3.2,1.2c0,0,0.1,0.1,0.1,0.1V15.2z"/>
</svg>
