<?xml version="1.0" encoding="utf-8"?>
<!-- Generator: Adobe Illustrator 24.1.1, SVG Export Plug-In . SVG Version: 6.00 Build 0)  -->
<svg version="1.1" id="Capa_1" xmlns="http://www.w3.org/2000/svg" xmlns:xlink="http://www.w3.org/1999/xlink" x="0px" y="0px"
	 viewBox="0 0 25 25" style="enable-background:new 0 0 25 25;" xml:space="preserve">
<style type="text/css">
	.st0{fill-rule:evenodd;clip-rule:evenodd;fill:#FFFFFF;}
</style>
<g id="Atoms-_-Icons-_-white-_-32px-_-rrss-_-facebook" transform="translate(1412 2349)">
	<path id="Path" class="st0" d="M-1389.7-2347.5h-19.6c-0.7,0-1.2,0.5-1.2,1.2v19.5c0,0.7,0.5,1.3,1.2,1.3c0,0,0,0,0,0h10.5v-8.5
		h-2.8v-3.3h2.8v-2.5c-0.2-2.2,1.4-4.2,3.6-4.4c0.2,0,0.5,0,0.7,0c1.2,0,2.3,0.1,2.6,0.1v3h-1.7c-1.4,0-1.6,0.6-1.6,1.6v2.1h3.3
		l-0.5,3.3h-2.8v8.5h5.6c0.7,0,1.2-0.5,1.2-1.2v-19.6C-1388.5-2347-1389-2347.5-1389.7-2347.5z"/>
</g>
</svg>
