<?xml version="1.0" encoding="utf-8"?>
<!-- Generator: Adobe Illustrator 22.1.0, SVG Export Plug-In . SVG Version: 6.00 Build 0)  -->
<svg version="1.1" id="Layer_1" xmlns="http://www.w3.org/2000/svg" xmlns:xlink="http://www.w3.org/1999/xlink" x="0px" y="0px"
	 viewBox="0 0 149 76.4" style="enable-background:new 0 0 149 76.4;" xml:space="preserve">
<style type="text/css">
	.st0{fill:#0167B7;}
	.st1{fill:#FFFFFF;}
	.st2{fill:#ED3232;}
</style>
<rect x="1" y="2" class="st0" width="111.6" height="10.7"/>
<g>
	<g>
		<g>
			<path class="st1" d="M71.8,52.9c-4.7,0-7.2-3.1-7.2-8.7c0-5.2,2.5-8.5,7.2-8.5c2.3,0,4.3,0.5,5.7,1.4l-1.2,2.6
				c-0.9-0.7-2.4-1.2-4.1-1.2c-2.8,0-4.2,2-4.2,5.6c0,3.9,1.4,5.8,4.1,5.8c1.6,0,3.3-0.7,4.4-1.5l1,2.6C75.9,52.2,74,52.9,71.8,52.9
				z"/>
			<path class="st1" d="M79.8,52.6V35.5H83V40c0,0.8-0.2,1.5-0.3,1.9c0.7-0.8,1.8-1.7,3.5-1.7c3.5,0,4.4,1.8,4.4,4.9v7.5h-3.3v-7.2
				c0-1.7-0.7-2.7-2.2-2.7c-0.8,0-1.6,0.3-2.2,0.7v9.2H79.8z"/>
			<path class="st1" d="M94.2,52.6v-9.8l-1.4-0.3v-2h4.6v12.1C97.4,52.6,94.2,52.6,94.2,52.6z M94.1,35.5h3.3v2.9h-3.3V35.5z"/>
			<path class="st1" d="M100.4,49.4V35.5h3.2v13.7c0,1,0.6,1.2,2,1.2v2.3c0,0-0.9,0.2-1.8,0.2C101.3,52.9,100.4,51.5,100.4,49.4z"/>
			<path class="st1" d="M110.5,47.4c0,1.9,1.1,3,3.1,3c1.2,0,2.5-0.5,3.6-1l0.6,2.3c-1,0.5-2.7,1.2-4.6,1.2c-3.7,0-6-2.3-6-6.3
				c0-3.7,1.8-6.3,5.7-6.3c3.7,0,5.1,2.7,5.1,5.8v1.3H110.5z M112.7,42.6c-1.6,0-2.3,1.5-2.3,2.9h4.4
				C114.9,43.9,114.4,42.6,112.7,42.6z"/>
			<path class="st1" d="M65.8,74.1H64l4.5-16.7h4.1l4.2,16.7h-2.1l-1-4.3h-6.9L65.8,74.1z M69.8,59l-2.5,9.2h6.1L71.2,59H69.8z"/>
			<path class="st1" d="M83,74.4c-1.7,0-3.1-0.9-3.1-3.7v-7.3h-1.8V62h1.8v-2.2l1.9-0.6V62h3.5v1.4h-3.5v7.5c0,1.3,0.5,1.9,1.6,1.9
				c0.6,0,1.5-0.3,1.9-0.5l0.4,1.4C85.2,74,84,74.4,83,74.4z"/>
			<path class="st1" d="M89.1,74.1V63.5l-1.3-0.3V62H91v12.1C91,74.1,89.1,74.1,89.1,74.1z M89,57.2h2v2h-2V57.2z"/>
			<path class="st1" d="M95.7,68.6c0,3,1.5,4.3,3.8,4.3c1.6,0,2.9-0.7,3.8-1.2l0.5,1.3c-1,0.6-2.6,1.3-4.4,1.3
				c-3.3,0-5.5-2.2-5.5-6.4c0-3.8,1.9-6.2,5.2-6.2c3.4,0,4.9,2.8,4.9,5.8v1.1C104,68.6,95.7,68.6,95.7,68.6z M99,63.2
				c-2.3,0-3.2,2-3.2,4.1h6.3C102.1,65.2,101.4,63.2,99,63.2z"/>
			<path class="st1" d="M114.4,74.1v-7.3c0-2.3-0.7-3.6-2.8-3.6c-1.3,0-2.2,0.7-3,1.4v9.5h-1.9V62h1.3l0.4,1.4
				c0.7-0.7,2-1.7,3.8-1.7c2.8,0,4.1,1.7,4.1,4.7v7.7H114.4z"/>
			<path class="st1" d="M127.4,72.7c-0.7,0.9-2.1,1.7-3.5,1.7c-2.9,0-4.9-2.1-4.9-6.3c0-3.7,1.8-6.3,5.1-6.3c1.5,0,2.6,0.5,3.2,1
				c-0.1-0.6-0.1-1.3-0.1-2V57h1.9v17.1h-1.4L127.4,72.7z M127.2,64c-0.6-0.4-1.6-0.9-2.9-0.9c-2.3,0-3.4,1.8-3.4,4.9
				c0,3,1,4.9,3.2,4.9c1.1,0,2.1-0.5,3.1-1.5C127.2,71.4,127.2,64,127.2,64z"/>
			<path class="st1" d="M133.9,68.6c0,3,1.5,4.3,3.8,4.3c1.6,0,2.9-0.7,3.8-1.2L142,73c-1,0.6-2.6,1.3-4.4,1.3
				c-3.3,0-5.5-2.2-5.5-6.4c0-3.8,1.9-6.2,5.2-6.2c3.4,0,4.9,2.8,4.9,5.8v1.1C142.2,68.6,133.9,68.6,133.9,68.6z M137.1,63.2
				c-2.3,0-3.2,2-3.2,4.1h6.3C140.2,65.2,139.5,63.2,137.1,63.2z"/>
		</g>
	</g>
	<path class="st1" d="M50,22.4H25.4v38.9c1.4-2.9,4.3-4.9,7.7-4.9H37c4.7,0,8.5,3.8,8.5,8.5v9c0,0.5,0,1-0.1,1.5H50
		c1.6,0,2.9-1.3,2.9-2.9V25.3C52.9,23.7,51.6,22.4,50,22.4z M35,55.4c-3.3,0-5.9-2.7-5.9-6s2.7-6,5.9-6c3.3,0,5.9,2.7,5.9,6
		C41,52.7,38.3,55.4,35,55.4z M16.5,60.9h3.2c1.8,0,3.4,0.7,4.7,1.8V22.4H4.6c-2,0-3.6,1.3-3.6,2.9v47.2c0,1.6,1.6,2.9,3.6,2.9h4.9
		l0,0v-7.5C9.5,64,12.6,60.9,16.5,60.9z M23,54.6c0,2.8-2.2,5-4.9,5s-4.9-2.2-4.9-5s2.2-5,4.9-5S23,51.8,23,54.6z M6.3,32.5l4.4-1.6
		l1.3-4.6l2.9,3.8l4.7-0.2L17,33.8l1.7,4.5L14.1,37l-3.7,3l-0.1-4.8L6.3,32.5z M36.8,72.4v3H24.9l0,0h-9.1V74c0-2.1,1.7-3.7,3.7-3.7
		h1.7c1.9,0,3.5,1.4,3.7,3.3v-1.2c0-2.7,2.2-4.9,4.9-4.9H32C34.7,67.6,36.8,69.7,36.8,72.4z M20.3,64.3c1.4,0,2.6,1.2,2.6,2.7
		s-1.2,2.7-2.6,2.7s-2.6-1.2-2.6-2.7C17.7,65.5,18.9,64.3,20.3,64.3z M30.9,66.7c-1.9,0-3.4-1.6-3.4-3.5s1.5-3.5,3.4-3.5
		c1.9,0,3.4,1.6,3.4,3.5S32.8,66.7,30.9,66.7z"/>
</g>
<rect x="50.9" y="2" class="st2" width="61.7" height="10.7"/>
</svg>
